<svg width="13" height="11" viewBox="0 0 13 11" fill="none" xmlns="http://www.w3.org/2000/svg">
<path id="Vector 10" d="M1 5.23077L0.625826 5.56242L0.33186 5.23077L0.625826 4.89911L1 5.23077ZM12.5 10.5C12.5 10.7761 12.2761 11 12 11C11.7239 11 11.5 10.7761 11.5 10.5L12.5 10.5ZM4.37583 9.79319L0.625826 5.56242L1.37417 4.89911L5.12417 9.12988L4.37583 9.79319ZM0.625826 4.89911L4.37583 0.668343L5.12417 1.33165L1.37417 5.56242L0.625826 4.89911ZM0.999999 4.73077L6.5 4.73077L6.5 5.73077L1 5.73077L0.999999 4.73077ZM6.5 4.73077L6.73076 4.73077L6.73076 5.73077L6.5 5.73077L6.5 4.73077ZM11.5 10.5C11.5 7.86602 9.36474 5.73077 6.73076 5.73077L6.73076 4.73077C9.91703 4.73077 12.5 7.31374 12.5 10.5L11.5 10.5Z" fill="black"/>
</svg>
