<svg width="12" height="12" viewBox="0 0 12 12" fill="none" xmlns="http://www.w3.org/2000/svg">
<path id="Union" fill-rule="evenodd" clip-rule="evenodd" d="M5.41176 0.94118C5.64147 0.94118 5.72221 0.941751 5.78543 0.947978C6.45571 1.01399 6.98601 1.54429 7.05202 2.21457C7.05825 2.27779 7.05882 2.35853 7.05882 2.58824H8L8 2.56102C8.00002 2.36872 8.00004 2.23778 7.98867 2.12232C7.87864 1.00519 6.99481 0.121361 5.87769 0.0113344C5.76222 -3.80233e-05 5.63129 -2.17551e-05 5.43899 2.14281e-06L5.41176 4.38675e-06L3.97015 4.16235e-06C3.22198 -5.82317e-06 2.61877 -1.37897e-05 2.13925 0.0566671C1.64298 0.115328 1.21831 0.240248 0.860255 0.534097C0.741116 0.631872 0.631872 0.741116 0.534097 0.860255C0.240248 1.21831 0.115328 1.64298 0.0566671 2.13925C-1.37897e-05 2.61877 -5.82317e-06 3.22198 4.16235e-06 3.97015L4.38675e-06 5.41176L2.14281e-06 5.43899C-2.17551e-05 5.63129 -3.80233e-05 5.76222 0.0113344 5.87769C0.121361 6.99481 1.00519 7.87864 2.12232 7.98867C2.23778 8.00004 2.36872 8.00002 2.56102 8L2.58824 8V7.05882C2.35853 7.05882 2.27779 7.05825 2.21457 7.05202C1.54429 6.98601 1.01399 6.45571 0.947978 5.78543C0.941751 5.72221 0.94118 5.64147 0.94118 5.41176V4C0.94118 3.21495 0.94195 2.66753 0.991336 2.24973C1.03949 1.84232 1.12821 1.61991 1.26164 1.45733C1.3203 1.38585 1.38585 1.3203 1.45733 1.26164C1.61991 1.12821 1.84232 1.03949 2.24973 0.991336C2.66753 0.94195 3.21495 0.94118 4 0.94118H5.41176ZM7.53358 3H7.46642C6.62472 2.99999 5.94612 2.99998 5.40665 3.06375C4.84835 3.12974 4.3706 3.27027 3.96778 3.60086C3.83375 3.71085 3.71085 3.83375 3.60086 3.96778C3.27027 4.3706 3.12974 4.84835 3.06375 5.40665C2.99998 5.94612 2.99999 6.62472 3 7.46642V7.53358C2.99999 8.37528 2.99998 9.05388 3.06375 9.59334C3.12974 10.1516 3.27027 10.6294 3.60086 11.0322C3.71085 11.1662 3.83375 11.2891 3.96778 11.3991C4.3706 11.7297 4.84835 11.8703 5.40665 11.9363C5.94612 12 6.62472 12 7.46642 12H7.53358C8.37528 12 9.05388 12 9.59334 11.9363C10.1516 11.8703 10.6294 11.7297 11.0322 11.3991C11.1662 11.2891 11.2891 11.1662 11.3991 11.0322C11.7297 10.6294 11.8703 10.1516 11.9363 9.59334C12 9.05388 12 8.37528 12 7.53358V7.46642C12 6.62472 12 5.94612 11.9363 5.40665C11.8703 4.84835 11.7297 4.3706 11.3991 3.96778C11.2891 3.83375 11.1662 3.71085 11.0322 3.60086C10.6294 3.27027 10.1516 3.12974 9.59334 3.06375C9.05388 2.99998 8.37528 2.99999 7.53358 3ZM4.63949 4.41934C4.82239 4.26923 5.07261 4.16943 5.53095 4.11525C6.00097 4.05969 6.61682 4.05882 7.5 4.05882C8.38318 4.05882 8.99903 4.05969 9.46905 4.11525C9.92739 4.16943 10.1776 4.26923 10.3605 4.41934C10.4409 4.48533 10.5147 4.55907 10.5807 4.63949C10.7308 4.82239 10.8306 5.07261 10.8848 5.53095C10.9403 6.00097 10.9412 6.61682 10.9412 7.5C10.9412 8.38318 10.9403 8.99903 10.8848 9.46905C10.8306 9.92739 10.7308 10.1776 10.5807 10.3605C10.5147 10.4409 10.4409 10.5147 10.3605 10.5807C10.1776 10.7308 9.92739 10.8306 9.46905 10.8848C8.99903 10.9403 8.38318 10.9412 7.5 10.9412C6.61682 10.9412 6.00097 10.9403 5.53095 10.8848C5.07261 10.8306 4.82239 10.7308 4.63949 10.5807C4.55907 10.5147 4.48533 10.4409 4.41934 10.3605C4.26923 10.1776 4.16943 9.92739 4.11525 9.46905C4.05969 8.99903 4.05882 8.38318 4.05882 7.5C4.05882 6.61682 4.05969 6.00097 4.11525 5.53095C4.16943 5.07261 4.26923 4.82239 4.41934 4.63949C4.48533 4.55907 4.55907 4.48533 4.63949 4.41934Z" fill="#867AA0"/>
</svg>
