<svg width="104" height="16" viewBox="0 0 104 16" fill="none" xmlns="http://www.w3.org/2000/svg">
<g id="Group 37267">
<g id="Rectangle 40243" filter="url(#filter0_d_2381_10933)">
<rect width="104" height="14" fill="#FFF1E8"/>
</g>
<g id="I am under 18">
<path id="Vector" d="M85.7732 3C86.6612 3 87.3692 3.228 87.8732 3.696C88.3292 4.116 88.5693 4.644 88.5693 5.268C88.5693 5.724 88.4612 6.108 88.2452 6.42C88.0052 6.756 87.6693 7.008 87.2253 7.164V7.188C87.6693 7.296 88.0532 7.548 88.3652 7.932C88.7012 8.34 88.8692 8.82 88.8692 9.372C88.8692 10.128 88.6052 10.74 88.0772 11.196C87.5252 11.664 86.7572 11.904 85.7732 11.904C84.7772 11.904 84.0092 11.664 83.4692 11.196C82.9412 10.74 82.6772 10.128 82.6772 9.372C82.6772 8.82 82.8453 8.34 83.1813 7.932C83.4933 7.548 83.8653 7.296 84.3213 7.188V7.164C83.8653 7.008 83.5292 6.756 83.3012 6.42C83.0852 6.108 82.9772 5.724 82.9772 5.268C82.9772 4.644 83.2052 4.116 83.6732 3.696C84.1772 3.228 84.8732 3 85.7732 3ZM85.7732 3.804C85.1612 3.804 84.6812 3.96 84.3452 4.272C84.0452 4.536 83.9012 4.884 83.9012 5.304C83.9012 5.736 84.0332 6.096 84.2972 6.36C84.6092 6.672 85.1012 6.84 85.7732 6.84C86.4332 6.84 86.9252 6.672 87.2492 6.36C87.5132 6.096 87.6452 5.736 87.6452 5.304C87.6452 4.884 87.4892 4.536 87.2012 4.272C86.8532 3.96 86.3732 3.804 85.7732 3.804ZM85.7732 7.608C85.0772 7.608 84.5492 7.776 84.1772 8.124C83.8172 8.436 83.6492 8.856 83.6492 9.372C83.6492 9.876 83.8172 10.296 84.1772 10.608C84.5372 10.932 85.0772 11.1 85.7732 11.1C86.4692 11.1 86.9972 10.932 87.3812 10.596C87.7172 10.284 87.8972 9.876 87.8972 9.372C87.8972 8.856 87.7172 8.436 87.3812 8.124C86.9972 7.776 86.4572 7.608 85.7732 7.608Z" fill="black"/>
<path id="Vector_2" d="M80.1168 3.16797H80.8848V11.736H79.9008V4.36797C79.3608 4.91997 78.6888 5.30397 77.8848 5.54397V4.55997C78.2688 4.45197 78.6768 4.28397 79.0848 4.04397C79.4928 3.77997 79.8288 3.49197 80.1168 3.16797Z" fill="black"/>
<path id="Vector_3" d="M72.4462 5.36401C72.7822 5.36401 73.0702 5.41201 73.2982 5.50801V6.46801C72.9862 6.37201 72.6742 6.33601 72.3742 6.33601C71.8942 6.33601 71.4862 6.54001 71.1622 6.97201C70.8262 7.38001 70.6702 7.87201 70.6702 8.44801V11.736H69.7222V5.53201H70.6702V6.61201C70.8382 6.25201 71.0542 5.96401 71.3182 5.76001C71.6422 5.49601 72.0142 5.36401 72.4462 5.36401Z" fill="black"/>
<path id="Vector_4" d="M65.6221 5.36401C66.6181 5.36401 67.3741 5.70001 67.8781 6.37201C68.3341 6.97201 68.5741 7.82401 68.5981 8.90401H63.7021C63.7501 9.60001 63.9301 10.14 64.2661 10.524C64.6021 10.908 65.0701 11.1 65.6581 11.1C66.1621 11.1 66.5821 10.968 66.8941 10.716C67.1581 10.5 67.3621 10.176 67.5181 9.74401H68.4781C68.3341 10.344 68.0581 10.824 67.6381 11.208C67.1221 11.664 66.4621 11.904 65.6581 11.904C64.7701 11.904 64.0501 11.604 63.5221 11.028C62.9701 10.428 62.7061 9.63601 62.7061 8.62801C62.7061 7.71601 62.9581 6.94801 63.4861 6.33601C64.0141 5.68801 64.7221 5.36401 65.6221 5.36401ZM65.6461 6.16801C65.0941 6.16801 64.6501 6.34801 64.3141 6.70801C63.9781 7.06801 63.7861 7.54801 63.7261 8.16001H67.6021C67.4821 6.82801 66.8221 6.16801 65.6461 6.16801Z" fill="black"/>
<path id="Vector_5" d="M60.6184 3H61.5784V11.736H60.6784V10.716C60.2464 11.508 59.5504 11.904 58.6144 11.904C57.7024 11.904 56.9944 11.568 56.4904 10.92C56.0224 10.32 55.7944 9.552 55.7944 8.616C55.7944 7.704 56.0224 6.96 56.4904 6.36C56.9944 5.688 57.6784 5.364 58.5664 5.364C59.4544 5.364 60.1384 5.796 60.6184 6.672V3ZM58.7704 6.156C58.0864 6.156 57.5704 6.396 57.2344 6.876C56.9224 7.296 56.7784 7.872 56.7784 8.616C56.7784 9.36 56.9224 9.948 57.2224 10.38C57.5584 10.86 58.0624 11.112 58.7344 11.112C59.3584 11.112 59.8384 10.872 60.1864 10.392C60.4864 9.96 60.6424 9.396 60.6424 8.7V8.58C60.6424 7.86 60.4624 7.272 60.1264 6.828C59.7784 6.372 59.3224 6.156 58.7704 6.156Z" fill="black"/>
<path id="Vector_6" d="M52.2355 5.36401C53.7715 5.36401 54.5515 6.21601 54.5515 7.92001V11.736H53.5915V7.99201C53.5915 6.78001 53.0395 6.18001 51.9595 6.18001C51.5275 6.18001 51.1555 6.33601 50.8435 6.64801C50.5075 6.98401 50.3275 7.42801 50.2915 7.99201V11.736H49.3315V5.53201H50.2915V6.44401C50.5075 6.09601 50.7835 5.83201 51.1195 5.65201C51.4555 5.46001 51.8275 5.36401 52.2355 5.36401Z" fill="black"/>
<path id="Vector_7" d="M42.6167 5.53198H43.5767V9.32398C43.5767 9.91198 43.6967 10.356 43.9487 10.644C44.2007 10.932 44.6087 11.088 45.1727 11.088C45.5807 11.088 45.9527 10.92 46.2767 10.608C46.6127 10.272 46.8167 9.83998 46.8887 9.31198V5.53198H47.8487V11.736H46.8887V10.776C46.3847 11.52 45.7127 11.904 44.8727 11.904C43.3607 11.904 42.6167 11.052 42.6167 9.37198V5.53198Z" fill="black"/>
<path id="Vector_8" d="M31.067 5.36401C32.015 5.36401 32.663 5.74801 33.011 6.54001C33.251 6.13201 33.539 5.83201 33.875 5.65201C34.175 5.46001 34.535 5.36401 34.967 5.36401C35.615 5.36401 36.131 5.56801 36.539 5.97601C36.923 6.39601 37.127 6.96001 37.127 7.66801V11.736H36.167V7.82401C36.167 7.27201 36.047 6.86401 35.819 6.60001C35.579 6.31201 35.195 6.18001 34.667 6.18001C34.259 6.18001 33.911 6.32401 33.647 6.63601C33.359 6.94801 33.227 7.34401 33.227 7.84801V11.736H32.267V7.82401C32.267 6.72001 31.787 6.18001 30.839 6.18001C30.395 6.18001 30.035 6.34801 29.747 6.70801C29.459 7.04401 29.315 7.46401 29.315 7.95601V11.736H28.355V5.53201H29.315V6.36001C29.783 5.68801 30.371 5.36401 31.067 5.36401Z" fill="black"/>
<path id="Vector_9" d="M24.3516 5.36401C25.2396 5.36401 25.8876 5.59201 26.3196 6.06001C26.6796 6.46801 26.8716 7.03201 26.8716 7.75201V11.736H25.9716V10.692C25.7316 11.028 25.4076 11.304 25.0236 11.52C24.5676 11.772 24.0516 11.904 23.4756 11.904C22.8516 11.904 22.3596 11.748 21.9876 11.436C21.6036 11.112 21.4116 10.692 21.4116 10.188C21.4116 9.48001 21.6876 8.95201 22.2636 8.59201C22.7676 8.25601 23.4876 8.07601 24.4236 8.06401L25.9116 8.04001V7.71601C25.9116 6.67201 25.3716 6.15601 24.2916 6.15601C23.8356 6.15601 23.4636 6.24001 23.1756 6.43201C22.8516 6.62401 22.6476 6.92401 22.5516 7.32001L21.6036 7.24801C21.7356 6.60001 22.0596 6.10801 22.5636 5.79601C23.0196 5.50801 23.6076 5.36401 24.3516 5.36401ZM25.9116 8.76001L24.4836 8.78401C23.0916 8.80801 22.3956 9.26401 22.3956 10.164C22.3956 10.452 22.5036 10.68 22.7436 10.872C22.9836 11.052 23.2956 11.148 23.6796 11.148C24.2676 11.148 24.7836 10.956 25.2396 10.572C25.6836 10.2 25.9116 9.76801 25.9116 9.28801V8.76001Z" fill="black"/>
<path id="Vector_10" d="M15 3.16797H15.972V11.736H15V3.16797Z" fill="black"/>
</g>
</g>
<defs>
<filter id="filter0_d_2381_10933" x="0" y="0" width="104" height="16" filterUnits="userSpaceOnUse" color-interpolation-filters="sRGB">
<feFlood flood-opacity="0" result="BackgroundImageFix"/>
<feColorMatrix in="SourceAlpha" type="matrix" values="0 0 0 0 0 0 0 0 0 0 0 0 0 0 0 0 0 0 127 0" result="hardAlpha"/>
<feOffset dy="2"/>
<feComposite in2="hardAlpha" operator="out"/>
<feColorMatrix type="matrix" values="0 0 0 0 0 0 0 0 0 0 0 0 0 0 0 0 0 0 1 0"/>
<feBlend mode="normal" in2="BackgroundImageFix" result="effect1_dropShadow_2381_10933"/>
<feBlend mode="normal" in="SourceGraphic" in2="effect1_dropShadow_2381_10933" result="shape"/>
</filter>
</defs>
</svg>
