<svg width="104" height="16" viewBox="0 0 104 16" fill="none" xmlns="http://www.w3.org/2000/svg">
<g id="Group 37269">
<g id="Group 37268">
<g id="Rectangle 40242" filter="url(#filter0_d_2381_10917)">
<rect width="104" height="14" fill="#867AA0"/>
</g>
<g id="I am 18 or order">
<path id="Vector" d="M94.9408 4.62793C95.2768 4.62793 95.5648 4.67593 95.7928 4.77193V5.73193C95.4808 5.63593 95.1688 5.59993 94.8688 5.59993C94.3888 5.59993 93.9808 5.80393 93.6568 6.23593C93.3208 6.64393 93.1648 7.13593 93.1648 7.71193V10.9999H92.2168V4.79593H93.1648V5.87593C93.3328 5.51593 93.5488 5.22793 93.8128 5.02393C94.1368 4.75993 94.5088 4.62793 94.9408 4.62793Z" fill="black"/>
<path id="Vector_2" d="M88.1164 4.62793C89.1124 4.62793 89.8684 4.96393 90.3724 5.63593C90.8284 6.23593 91.0684 7.08793 91.0924 8.16793H86.1964C86.2444 8.86393 86.4244 9.40393 86.7604 9.78793C87.0964 10.1719 87.5644 10.3639 88.1524 10.3639C88.6564 10.3639 89.0764 10.2319 89.3884 9.97993C89.6524 9.76393 89.8564 9.43993 90.0124 9.00793H90.9724C90.8284 9.60793 90.5524 10.0879 90.1324 10.4719C89.6164 10.9279 88.9564 11.1679 88.1524 11.1679C87.2644 11.1679 86.5444 10.8679 86.0164 10.2919C85.4644 9.69193 85.2004 8.89993 85.2004 7.89193C85.2004 6.97993 85.4524 6.21193 85.9804 5.59993C86.5084 4.95193 87.2164 4.62793 88.1164 4.62793ZM88.1404 5.43193C87.5884 5.43193 87.1444 5.61193 86.8084 5.97193C86.4724 6.33193 86.2804 6.81193 86.2204 7.42393H90.0964C89.9764 6.09193 89.3164 5.43193 88.1404 5.43193Z" fill="black"/>
<path id="Vector_3" d="M83.1133 2.26392H84.0733V10.9999H83.1733V9.97992C82.7413 10.7719 82.0453 11.1679 81.1093 11.1679C80.1973 11.1679 79.4893 10.8319 78.9853 10.1839C78.5173 9.58392 78.2893 8.81592 78.2893 7.87992C78.2893 6.96792 78.5173 6.22392 78.9853 5.62392C79.4893 4.95192 80.1733 4.62792 81.0613 4.62792C81.9493 4.62792 82.6333 5.05992 83.1133 5.93592V2.26392ZM81.2653 5.41992C80.5813 5.41992 80.0653 5.65992 79.7293 6.13992C79.4173 6.55992 79.2733 7.13592 79.2733 7.87992C79.2733 8.62392 79.4173 9.21192 79.7173 9.64392C80.0533 10.1239 80.5573 10.3759 81.2293 10.3759C81.8533 10.3759 82.3333 10.1359 82.6813 9.65592C82.9813 9.22392 83.1373 8.65992 83.1373 7.96392V7.84392C83.1373 7.12392 82.9573 6.53592 82.6213 6.09192C82.2733 5.63592 81.8173 5.41992 81.2653 5.41992Z" fill="black"/>
<path id="Vector_4" d="M69.8872 4.62793C70.8112 4.62793 71.5552 4.93993 72.1072 5.58793C72.6352 6.19993 72.8992 6.96793 72.8992 7.90393C72.8992 8.82793 72.6352 9.59593 72.1192 10.1959C71.5552 10.8439 70.8112 11.1679 69.8872 11.1679C68.9512 11.1679 68.2192 10.8439 67.6672 10.1959C67.1392 9.59593 66.8752 8.82793 66.8752 7.90393C66.8752 6.96793 67.1392 6.19993 67.6672 5.58793C68.2192 4.93993 68.9512 4.62793 69.8872 4.62793ZM69.8872 5.43193C69.2272 5.43193 68.7112 5.68393 68.3512 6.18793C68.0152 6.64393 67.8592 7.20793 67.8592 7.90393C67.8592 8.58793 68.0152 9.15193 68.3512 9.60793C68.7112 10.1119 69.2272 10.3639 69.8872 10.3639C70.5352 10.3639 71.0512 10.1119 71.4352 9.60793C71.7592 9.15193 71.9272 8.57593 71.9272 7.90393C71.9272 7.20793 71.7592 6.64393 71.4352 6.18793C71.0512 5.68393 70.5352 5.43193 69.8872 5.43193Z" fill="black"/>
<path id="Vector_5" d="M61.4603 4.62793C61.7963 4.62793 62.0843 4.67593 62.3123 4.77193V5.73193C62.0003 5.63593 61.6883 5.59993 61.3883 5.59993C60.9083 5.59993 60.5003 5.80393 60.1763 6.23593C59.8403 6.64393 59.6843 7.13593 59.6843 7.71193V10.9999H58.7363V4.79593H59.6843V5.87593C59.8523 5.51593 60.0683 5.22793 60.3323 5.02393C60.6563 4.75993 61.0283 4.62793 61.4603 4.62793Z" fill="black"/>
<path id="Vector_6" d="M54.4771 4.62793C55.4011 4.62793 56.1451 4.93993 56.6971 5.58793C57.2251 6.19993 57.4891 6.96793 57.4891 7.90393C57.4891 8.82793 57.2251 9.59593 56.7091 10.1959C56.1451 10.8439 55.4011 11.1679 54.4771 11.1679C53.5411 11.1679 52.8091 10.8439 52.2571 10.1959C51.7291 9.59593 51.4651 8.82793 51.4651 7.90393C51.4651 6.96793 51.7291 6.19993 52.2571 5.58793C52.8091 4.93993 53.5411 4.62793 54.4771 4.62793ZM54.4771 5.43193C53.8171 5.43193 53.3011 5.68393 52.9411 6.18793C52.6051 6.64393 52.4491 7.20793 52.4491 7.90393C52.4491 8.58793 52.6051 9.15193 52.9411 9.60793C53.3011 10.1119 53.8171 10.3639 54.4771 10.3639C55.1251 10.3639 55.6411 10.1119 56.0251 9.60793C56.3491 9.15193 56.5171 8.57593 56.5171 7.90393C56.5171 7.20793 56.3491 6.64393 56.0251 6.18793C55.6411 5.68393 55.1251 5.43193 54.4771 5.43193Z" fill="black"/>
<path id="Vector_7" d="M43.3697 2.26392C44.2577 2.26392 44.9657 2.49192 45.4697 2.95992C45.9257 3.37992 46.1657 3.90792 46.1657 4.53192C46.1657 4.98792 46.0577 5.37192 45.8417 5.68392C45.6017 6.01992 45.2657 6.27192 44.8217 6.42792V6.45192C45.2657 6.55992 45.6497 6.81192 45.9617 7.19592C46.2977 7.60392 46.4657 8.08392 46.4657 8.63592C46.4657 9.39192 46.2017 10.0039 45.6737 10.4599C45.1217 10.9279 44.3537 11.1679 43.3697 11.1679C42.3737 11.1679 41.6057 10.9279 41.0657 10.4599C40.5377 10.0039 40.2737 9.39192 40.2737 8.63592C40.2737 8.08392 40.4417 7.60392 40.7777 7.19592C41.0897 6.81192 41.4617 6.55992 41.9177 6.45192V6.42792C41.4617 6.27192 41.1257 6.01992 40.8977 5.68392C40.6817 5.37192 40.5737 4.98792 40.5737 4.53192C40.5737 3.90792 40.8017 3.37992 41.2697 2.95992C41.7737 2.49192 42.4697 2.26392 43.3697 2.26392ZM43.3697 3.06792C42.7577 3.06792 42.2777 3.22392 41.9417 3.53592C41.6417 3.79992 41.4977 4.14792 41.4977 4.56792C41.4977 4.99992 41.6297 5.35992 41.8937 5.62392C42.2057 5.93592 42.6977 6.10392 43.3697 6.10392C44.0297 6.10392 44.5217 5.93592 44.8457 5.62392C45.1097 5.35992 45.2417 4.99992 45.2417 4.56792C45.2417 4.14792 45.0857 3.79992 44.7977 3.53592C44.4497 3.22392 43.9697 3.06792 43.3697 3.06792ZM43.3697 6.87192C42.6737 6.87192 42.1457 7.03992 41.7737 7.38792C41.4137 7.69992 41.2457 8.11992 41.2457 8.63592C41.2457 9.13992 41.4137 9.55992 41.7737 9.87192C42.1337 10.1959 42.6737 10.3639 43.3697 10.3639C44.0657 10.3639 44.5937 10.1959 44.9777 9.85992C45.3137 9.54792 45.4937 9.13992 45.4937 8.63592C45.4937 8.11992 45.3137 7.69992 44.9777 7.38792C44.5937 7.03992 44.0537 6.87192 43.3697 6.87192Z" fill="black"/>
<path id="Vector_8" d="M37.7132 2.43188H38.4812V10.9999H37.4972V3.63189C36.9572 4.18389 36.2852 4.56789 35.4812 4.80789V3.82388C35.8652 3.71588 36.2732 3.54788 36.6812 3.30789C37.0892 3.04388 37.4252 2.75588 37.7132 2.43188Z" fill="black"/>
<path id="Vector_9" d="M24.1475 4.62793C25.0955 4.62793 25.7435 5.01193 26.0915 5.80393C26.3315 5.39593 26.6195 5.09593 26.9555 4.91593C27.2555 4.72393 27.6155 4.62793 28.0475 4.62793C28.6955 4.62793 29.2115 4.83193 29.6195 5.23993C30.0035 5.65993 30.2075 6.22393 30.2075 6.93193V10.9999H29.2475V7.08793C29.2475 6.53593 29.1275 6.12793 28.8995 5.86393C28.6595 5.57593 28.2755 5.44393 27.7475 5.44393C27.3395 5.44393 26.9915 5.58793 26.7275 5.89993C26.4395 6.21193 26.3075 6.60793 26.3075 7.11193V10.9999H25.3475V7.08793C25.3475 5.98393 24.8675 5.44393 23.9195 5.44393C23.4755 5.44393 23.1155 5.61193 22.8275 5.97193C22.5395 6.30793 22.3955 6.72793 22.3955 7.21993V10.9999H21.4355V4.79593H22.3955V5.62393C22.8635 4.95193 23.4515 4.62793 24.1475 4.62793Z" fill="black"/>
<path id="Vector_10" d="M17.4322 4.62793C18.3202 4.62793 18.9682 4.85593 19.4002 5.32393C19.7602 5.73193 19.9522 6.29593 19.9522 7.01593V10.9999H19.0522V9.95593C18.8122 10.2919 18.4882 10.5679 18.1042 10.7839C17.6482 11.0359 17.1322 11.1679 16.5562 11.1679C15.9322 11.1679 15.4402 11.0119 15.0682 10.6999C14.6842 10.3759 14.4922 9.95593 14.4922 9.45193C14.4922 8.74393 14.7682 8.21593 15.3442 7.85593C15.8482 7.51993 16.5682 7.33993 17.5042 7.32793L18.9922 7.30393V6.97993C18.9922 5.93593 18.4522 5.41993 17.3722 5.41993C16.9162 5.41993 16.5442 5.50393 16.2562 5.69593C15.9322 5.88793 15.7282 6.18793 15.6322 6.58393L14.6842 6.51193C14.8162 5.86393 15.1402 5.37193 15.6442 5.05993C16.1002 4.77193 16.6882 4.62793 17.4322 4.62793ZM18.9922 8.02393L17.5642 8.04793C16.1722 8.07193 15.4762 8.52793 15.4762 9.42793C15.4762 9.71593 15.5842 9.94393 15.8242 10.1359C16.0642 10.3159 16.3762 10.4119 16.7602 10.4119C17.3482 10.4119 17.8642 10.2199 18.3202 9.83593C18.7642 9.46393 18.9922 9.03193 18.9922 8.55193V8.02393Z" fill="black"/>
<path id="Vector_11" d="M8.08057 2.43188H9.05257V10.9999H8.08057V2.43188Z" fill="black"/>
<path id="Vector_12" d="M75 2.43188H75.972V10.9999H75V2.43188Z" fill="black"/>
</g>
</g>
</g>
<defs>
<filter id="filter0_d_2381_10917" x="0" y="0" width="104" height="16" filterUnits="userSpaceOnUse" color-interpolation-filters="sRGB">
<feFlood flood-opacity="0" result="BackgroundImageFix"/>
<feColorMatrix in="SourceAlpha" type="matrix" values="0 0 0 0 0 0 0 0 0 0 0 0 0 0 0 0 0 0 127 0" result="hardAlpha"/>
<feOffset dy="2"/>
<feComposite in2="hardAlpha" operator="out"/>
<feColorMatrix type="matrix" values="0 0 0 0 0 0 0 0 0 0 0 0 0 0 0 0 0 0 1 0"/>
<feBlend mode="normal" in2="BackgroundImageFix" result="effect1_dropShadow_2381_10917"/>
<feBlend mode="normal" in="SourceGraphic" in2="effect1_dropShadow_2381_10917" result="shape"/>
</filter>
</defs>
</svg>
