<svg width="73" height="72" viewBox="0 0 73 72" fill="none" xmlns="http://www.w3.org/2000/svg">
<path d="M35.3225 18.8851H32.9676V14.1638H17.6612V18.8851V21.2458H15.3064H12.9515H10.5967V33.0491H12.9515V35.4097H15.3064V37.7704H17.6612H32.9676V32.4707H35.3225V18.8851Z" fill="#FFF1E8"/>
<path d="M37.6772 18.8851H40.0321V14.1638H55.3385V18.8851V21.2458H57.6934H60.0482H62.4031V33.0491H60.0482V35.4097H57.6934V37.7704H55.3385H40.0321V32.4707H37.6772V18.8851Z" fill="#FFF1E8"/>
<path d="M37.6772 48.3934H40.0321V60.1967H55.3385V59.0163V53.1147H57.6934H60.0482H62.4031V44.8524H60.0482V42.4918H57.6934V40.1311H55.3385H40.0321V43.6721H37.6772V48.3934Z" fill="#FFF1E8"/>
<path d="M35.3225 48.3934H32.9676V60.1967H17.6612V59.0163V53.1147H15.3064H12.9515H10.5967V44.8524H12.9515V42.4918H15.3064V40.1311H17.6612H32.9676V43.6721H35.3225V48.3934Z" fill="#FFF1E8"/>
<path d="M40.0318 37.7704H37.677V32.4707H35.3221V37.7704H32.9673V40.131H35.3221V69.6392H37.677V40.131H40.0318V37.7704Z" fill="#FFF1E8"/>
<path d="M40.0322 14.1638V16.5245V18.8851H42.0221V16.5245H52.9838V14.1638H40.0322Z" fill="black" fill-opacity="0.45"/>
<path d="M15.306 42.4917H12.9512V44.8524H15.306V42.4917Z" fill="black" fill-opacity="0.45"/>
<path d="M12.9515 44.8523H10.5967V53.1146H12.9515V44.8523Z" fill="black" fill-opacity="0.45"/>
<path d="M20.016 53.1147H17.6611V57.8361H20.016V53.1147Z" fill="black" fill-opacity="0.45"/>
<path d="M40.0321 18.8853H37.6772V32.4708H40.0321V18.8853Z" fill="black" fill-opacity="0.45"/>
<path d="M52.9837 16.5244H42.022V18.8851H52.9837V16.5244Z" fill="black" fill-opacity="0.25"/>
<path d="M42.3871 18.8853H40.0322V35.4098H42.3871V18.8853Z" fill="black" fill-opacity="0.25"/>
<path d="M30.6126 40.1311H15.3062V42.4918H30.6126V40.1311Z" fill="black" fill-opacity="0.45"/>
<path d="M12.9515 21.2458H10.5967V33.0491H12.9515V23.6065H17.6612V21.2458H12.9515Z" fill="black" fill-opacity="0.45"/>
<path d="M17.6609 23.6064H15.306H14.888H12.9512V35.4097H15.306V25.9671H17.6609V23.6064Z" fill="black" fill-opacity="0.25"/>
<path d="M20.016 21.2458H17.6611V23.6065H20.016V21.2458Z" fill="black" fill-opacity="0.25"/>
<path d="M15.306 44.8523H12.9512V53.1146H15.306V44.8523Z" fill="black" fill-opacity="0.25"/>
<path d="M42.3871 48.3933H40.0322V57.8359H42.3871V48.3933Z" fill="black" fill-opacity="0.45"/>
<path d="M44.7416 48.3933H42.3867V57.8359H44.7416V48.3933Z" fill="black" fill-opacity="0.25"/>
<path d="M42.3871 42.4917H40.0322V44.8524H42.3871V42.4917Z" fill="black" fill-opacity="0.45"/>
<path d="M55.3387 40.1311H40.0322V42.4918H55.3387V40.1311Z" fill="black" fill-opacity="0.45"/>
<path d="M55.3383 42.4917H42.3867V44.8524H55.3383V42.4917Z" fill="black" fill-opacity="0.25"/>
<path d="M22.371 53.1147H20.0161V57.8361H22.371V53.1147Z" fill="black" fill-opacity="0.25"/>
<path d="M30.6126 42.4917H15.3062V44.8524H30.6126V42.4917Z" fill="black" fill-opacity="0.25"/>
<path d="M17.6611 14.1638V16.5245V21.2458H20.016V16.5245H30.6127V14.1638H17.6611Z" fill="black" fill-opacity="0.45"/>
<path d="M20.0161 16.5244V18.8851V21.2457H22.371V18.8851H30.6129V16.5244H20.0161Z" fill="black" fill-opacity="0.25"/>
<path d="M62.4029 21.2458H60.0481V33.0491H62.4029V21.2458Z" fill="white" fill-opacity="0.85"/>
<path d="M60.0482 33.0491H57.6934V35.4097H60.0482V33.0491Z" fill="white" fill-opacity="0.85"/>
<path d="M57.6935 35.4097H40.0322V37.7703H57.6935V35.4097Z" fill="white" fill-opacity="0.85"/>
<path d="M35.3221 18.8853H32.9673V32.4708H35.3221V18.8853Z" fill="white" fill-opacity="0.85"/>
<path d="M32.9676 32.4707H30.6128V35.4097H32.9676V32.4707Z" fill="white" fill-opacity="0.85"/>
<path d="M32.9676 14.1638H30.6128V18.8851H32.9676V14.1638Z" fill="white" fill-opacity="0.85"/>
<path d="M32.9674 35.4097H15.3062V37.7703H32.9674V35.4097Z" fill="white" fill-opacity="0.85"/>
<path d="M62.4029 44.8523H60.0481V53.1146H62.4029V44.8523Z" fill="white" fill-opacity="0.85"/>
<path d="M32.9676 40.1311H30.6128V44.8524H32.9676V40.1311Z" fill="white" fill-opacity="0.85"/>
<path d="M57.6932 40.1311H55.3384V42.4918H57.6932V40.1311Z" fill="white" fill-opacity="0.85"/>
<path d="M55.3382 14.1638H52.9834V21.2458H55.3382V14.1638Z" fill="white" fill-opacity="0.85"/>
<path d="M60.0482 42.4917H57.6934V44.8524H60.0482V42.4917Z" fill="white"/>
<path d="M60.0481 50.7542H55.3384V53.1148H60.0481V50.7542Z" fill="white" fill-opacity="0.85"/>
<path d="M52.9838 53.1147V57.8361H40.0322V60.1967H52.9838H55.3387V53.1147H52.9838Z" fill="white" fill-opacity="0.85"/>
<path d="M30.6127 48.3933V57.8359H17.6611V60.1966H30.6127H32.9676V57.8359V48.3933H30.6127Z" fill="white" fill-opacity="0.85"/>
<path d="M37.6771 18.8853H35.3223V32.4708H37.6771V18.8853Z" fill="black"/>
<path d="M35.3221 40.1311H32.9673V44.8524H35.3221V40.1311Z" fill="black"/>
<path d="M40.0321 40.1311H37.6772V44.8524H40.0321V40.1311Z" fill="black"/>
<path d="M32.9676 11.8032H17.6611V14.1639H32.9676V11.8032Z" fill="black"/>
<path d="M17.6612 18.8853H10.5967V21.2459H17.6612V18.8853Z" fill="black"/>
<path d="M12.9515 33.0491H10.5967V35.4097H12.9515V33.0491Z" fill="black"/>
<path d="M15.306 35.4097H12.9512V37.7703H15.306V35.4097Z" fill="black"/>
<path d="M32.9674 37.7705H15.3062V40.1312H32.9674V37.7705Z" fill="black"/>
<path d="M17.661 14.1638H15.3062V18.8851H17.661V14.1638Z" fill="black"/>
<path d="M35.3221 14.1638H32.9673V18.8851H35.3221V14.1638Z" fill="black"/>
<path d="M35.3221 32.4707H32.9673V37.7704H35.3221V32.4707Z" fill="black"/>
<path d="M10.5965 21.2458H8.2417V33.0491H10.5965V21.2458Z" fill="black"/>
<path d="M55.3387 11.8032H40.0322V14.1639H55.3387V11.8032Z" fill="black"/>
<path d="M62.4029 18.8853H55.3384V21.2459H62.4029V18.8853Z" fill="black"/>
<path d="M62.4029 33.0491H60.0481V35.4097H62.4029V33.0491Z" fill="black"/>
<path d="M60.0482 35.4097H57.6934V37.7703H60.0482V35.4097Z" fill="black"/>
<path d="M57.6935 37.7705H40.0322V40.1312H57.6935V37.7705Z" fill="black"/>
<path d="M57.6932 14.1638H55.3384V18.8851H57.6932V14.1638Z" fill="black"/>
<path d="M40.0321 14.1638H37.6772V18.8851H40.0321V14.1638Z" fill="black"/>
<path d="M40.0321 32.4707H37.6772V37.7704H40.0321V32.4707Z" fill="black"/>
<path d="M64.7579 21.2458H62.4031V33.0491H64.7579V21.2458Z" fill="black"/>
<path d="M32.9676 60.1968H17.6611V62.5574H32.9676V60.1968Z" fill="black"/>
<path d="M17.6612 53.1147H10.5967V55.4754H17.6612V53.1147Z" fill="black"/>
<path d="M12.9515 42.4917H10.5967V44.8524H12.9515V42.4917Z" fill="black"/>
<path d="M15.306 40.1311H12.9512V42.4918H15.306V40.1311Z" fill="black"/>
<path d="M17.661 55.4753H15.3062V60.1967H17.661V55.4753Z" fill="black"/>
<path d="M35.3221 48.3933H32.9673V69.6392H35.3221V48.3933Z" fill="black"/>
<path d="M10.5965 44.8523H8.2417V53.1146H10.5965V44.8523Z" fill="black"/>
<path d="M55.3387 60.1968H40.0322V62.5574H55.3387V60.1968Z" fill="black"/>
<path d="M40.0318 69.6394H32.9673V72.0001H40.0318V69.6394Z" fill="black"/>
<path d="M62.4029 53.1147H55.3384V55.4754H62.4029V53.1147Z" fill="black"/>
<path d="M62.4029 42.4917H60.0481V44.8524H62.4029V42.4917Z" fill="black"/>
<path d="M60.0482 40.1311H57.6934V42.4918H60.0482V40.1311Z" fill="black"/>
<path d="M57.6932 55.4753H55.3384V60.1967H57.6932V55.4753Z" fill="black"/>
<path d="M40.0321 48.3933H37.6772V69.6392H40.0321V48.3933Z" fill="black"/>
<path d="M64.7579 44.8523H62.4031V53.1146H64.7579V44.8523Z" fill="black"/>
</svg>
