<svg width="20" height="20" viewBox="0 0 20 20" fill="none" xmlns="http://www.w3.org/2000/svg">
<g id="16/refresh">
<g id="Vector">
<path fill-rule="evenodd" clip-rule="evenodd" d="M8.88897 3.43748C5.207 3.43748 2.22229 6.37561 2.22229 9.99999C2.22229 13.6244 5.207 16.5625 8.88897 16.5625C10.4946 16.5625 11.9478 15.9808 13.0985 15.0501L14.6919 16.6186C13.1343 17.9434 11.109 18.75 8.88897 18.75C3.97967 18.75 0 14.8325 0 9.99999C0 5.16748 3.97967 1.25 8.88897 1.25C13.7981 1.25 17.7779 5.16748 17.7779 9.99999H15.5556C15.5556 6.37561 12.5709 3.43748 8.88897 3.43748ZM20 9.99999L16.6668 14.375L13.3333 9.99999H20Z" fill="black"/>
</g>
</g>
</svg>
