<svg width="160" height="72" viewBox="0 0 160 72" fill="none" xmlns="http://www.w3.org/2000/svg">
<mask id="path-1-inside-1_2043_7566" fill="white">
<path fill-rule="evenodd" clip-rule="evenodd" d="M12 16H148V20H152V24H156V28H160V60H156V64H152V68H148V72H12V68H8L8 64H4L4 60H0V28L4 28L4 24H8V20L12 20L12 16Z"/>
</mask>
<path fill-rule="evenodd" clip-rule="evenodd" d="M12 16H148V20H152V24H156V28H160V60H156V64H152V68H148V72H12V68H8L8 64H4L4 60H0V28L4 28L4 24H8V20L12 20L12 16Z" fill="#FFF1E8"/>
<path d="M148 16H152V12H148V16ZM12 16V12H8L8 16L12 16ZM148 20H144V24H148V20ZM152 20H156V16H152V20ZM152 24H148V28H152V24ZM156 24H160V20H156V24ZM156 28H152V32H156V28ZM160 28H164V24H160V28ZM160 60V64H164V60H160ZM156 60V56H152V60H156ZM156 64V68H160V64H156ZM152 64V60H148V64H152ZM152 68V72H156V68H152ZM148 68V64H144V68H148ZM148 72V76H152V72H148ZM12 72H8V76H12V72ZM12 68H16V64H12V68ZM8 68H4L4 72H8V68ZM8 64H12L12 60H8V64ZM4 64H4.76837e-07L0 68H4V64ZM4 60H8L8 56H4V60ZM0 60H-4V64H0V60ZM0 28L9.53674e-07 24L-4 24V28H0ZM4 28L4 32L8 32L8 28L4 28ZM4 24V20H9.53674e-07L4.76837e-07 24L4 24ZM8 24V28H12V24H8ZM8 20L8 16L4 16V20H8ZM12 20L12 24L16 24V20L12 20ZM148 12H12V20H148V12ZM152 20V16H144V20H152ZM152 16H148V24H152V16ZM156 24V20H148V24H156ZM156 20H152V28H156V20ZM160 28V24H152V28H160ZM160 24H156V32H160V24ZM164 60V28H156V60H164ZM156 64H160V56H156V64ZM160 64V60H152V64H160ZM152 68H156V60H152V68ZM156 68V64H148V68H156ZM148 72H152V64H148V72ZM152 72V68H144V72H152ZM12 76H148V68H12V76ZM8 68V72H16V68H8ZM8 72H12V64H8V72ZM4 64L4 68H12L12 64H4ZM4 68H8V60H4V68ZM9.53674e-07 60L4.76837e-07 64H8L8 60H9.53674e-07ZM0 64H4V56H0V64ZM-4 28V60H4V28H-4ZM4 24L9.53674e-07 24L-9.53674e-07 32H4L4 24ZM4.76837e-07 24L0 28L8 28V24L4.76837e-07 24ZM8 20H4V28H8V20ZM4 20V24H12V20H4ZM12 16L8 16L8 24H12L12 16ZM8 16L8 20L16 20L16 16L8 16Z" fill="black" mask="url(#path-1-inside-1_2043_7566)"/>
<rect x="144" y="60" width="4" height="4" fill="black" fill-opacity="0.45"/>
<rect x="12" y="60" width="4" height="4" fill="black" fill-opacity="0.45"/>
<rect x="16" y="64" width="128" height="4" fill="black" fill-opacity="0.45"/>
<rect x="148" y="56" width="4" height="4" fill="black" fill-opacity="0.45"/>
<rect x="152" y="52" width="4" height="4" fill="black" fill-opacity="0.45"/>
<rect x="8" y="56" width="4" height="4" fill="black" fill-opacity="0.45"/>
<rect x="4" y="52" width="4" height="4" fill="black" fill-opacity="0.45"/>
<rect x="12" y="56" width="4" height="4" fill="white" fill-opacity="0.85"/>
<rect x="144" y="56" width="4" height="4" fill="white" fill-opacity="0.85"/>
<rect x="16" y="60" width="128" height="4" fill="white" fill-opacity="0.85"/>
<rect x="8" y="52" width="4" height="4" fill="white" fill-opacity="0.85"/>
<rect x="148" y="52" width="4" height="4" fill="white" fill-opacity="0.85"/>
<mask id="path-15-inside-2_2043_7566" fill="white">
<path fill-rule="evenodd" clip-rule="evenodd" d="M140 56L20 56V52H16V48H12V8L16 8L16 4L20 4L20 0H140V4L144 4V8L148 8V48H144V52L140 52V56Z"/>
</mask>
<path fill-rule="evenodd" clip-rule="evenodd" d="M140 56L20 56V52H16V48H12V8L16 8L16 4L20 4L20 0H140V4L144 4V8L148 8V48H144V52L140 52V56Z" fill="#867AA0"/>
<path d="M20 56H16V60H20V56ZM140 56V60H144V56H140ZM20 52H24V48H20V52ZM16 52H12V56H16V52ZM16 48H20V44H16V48ZM12 48H8V52H12V48ZM12 8L12 4L8 4V8H12ZM16 8L16 12L20 12L20 8L16 8ZM16 4L16 9.53674e-07L12 4.76837e-07L12 4L16 4ZM20 4L20 8L24 8L24 4L20 4ZM20 0V-4H16L16 -9.53674e-07L20 0ZM140 0H144V-4H140V0ZM140 4H136V8L140 8V4ZM144 4H148V7.15256e-07L144 -2.38418e-07V4ZM144 8H140V12L144 12V8ZM148 8H152V4L148 4V8ZM148 48V52H152V48H148ZM144 48V44H140V48H144ZM144 52V56L148 56V52H144ZM140 52V48L136 48V52H140ZM20 60L140 60V52L20 52V60ZM16 52V56H24V52H16ZM16 56H20V48H16V56ZM12 48V52H20V48H12ZM12 52H16V44H12V52ZM8 8V48H16V8H8ZM16 4L12 4L12 12L16 12L16 4ZM12 4L12 8L20 8L20 4L12 4ZM20 1.43051e-06L16 9.53674e-07L16 8H20L20 1.43051e-06ZM16 -9.53674e-07L16 4L24 4L24 9.53674e-07L16 -9.53674e-07ZM140 -4H20V4H140V-4ZM144 4V0H136V4H144ZM144 -2.38418e-07L140 -1.19209e-06V8L144 8V-2.38418e-07ZM148 8V4H140V8H148ZM148 4L144 4V12L148 12V4ZM152 48V8H144V48H152ZM144 52H148V44H144V52ZM148 52V48H140V52H148ZM140 56L144 56V48L140 48V56ZM144 56V52H136V56H144Z" fill="black" mask="url(#path-15-inside-2_2043_7566)"/>
<rect x="16" y="36" width="4" height="4" fill="white" fill-opacity="0.45"/>
<rect x="140" y="36" width="4" height="4" fill="white" fill-opacity="0.45"/>
<rect x="20" y="40" width="120" height="4" fill="white" fill-opacity="0.45"/>
<path fill-rule="evenodd" clip-rule="evenodd" d="M20 40H16V44H20V48H24V52H136V48H140V44H144V40H140V44H20V40Z" fill="black" fill-opacity="0.45"/>
<path d="M34.3904 18.8H37.1904V27.2H34.3904V18.8ZM34.3904 16V18.8H25.9904V27.2H34.3904V30H23.1904V16H34.3904ZM51.1932 21.6V24.4H42.7932V27.2H53.9932V30H39.9932V16H53.9932V18.8H42.7932V21.6H51.1932ZM67.9959 18.8H70.7959V21.6H67.9959V18.8ZM67.9959 21.6V24.4H59.5959V30H56.7959V16H67.9959V18.8H59.5959V21.6H67.9959ZM84.7986 18.8H76.3986V16H84.7986V18.8ZM73.5986 18.8H76.3986V27.2H73.5986V18.8ZM84.7986 18.8H87.5986V27.2H84.7986V18.8ZM76.3986 27.2H84.7986V30H76.3986V27.2ZM104.401 16V18.8H93.2014V16H104.401ZM90.4014 18.8H93.2014V21.6H90.4014V18.8ZM101.601 21.6V24.4H93.2014V21.6H101.601ZM101.601 24.4H104.401V27.2H101.601V24.4ZM101.601 27.2V30H90.4014V27.2H101.601ZM112.804 18.8H107.204V16H121.204V18.8H115.604V27.2H121.204V30H107.204V27.2H112.804V18.8ZM129.607 18.8H124.007V16H138.007V18.8H132.407V30H129.607V18.8Z" fill="black"/>
</svg>
