<svg width="160" height="72" viewBox="0 0 160 72" fill="none" xmlns="http://www.w3.org/2000/svg">
<mask id="path-1-inside-1_2381_10145" fill="white">
<path fill-rule="evenodd" clip-rule="evenodd" d="M12 16H148V20H152V24H156V28H160V60H156V64H152V68H148V72H12V68H8L8 64H4L4 60H0V28L4 28L4 24H8V20L12 20L12 16Z"/>
</mask>
<path fill-rule="evenodd" clip-rule="evenodd" d="M12 16H148V20H152V24H156V28H160V60H156V64H152V68H148V72H12V68H8L8 64H4L4 60H0V28L4 28L4 24H8V20L12 20L12 16Z" fill="#FFF1E8"/>
<path d="M148 16H152V12H148V16ZM12 16V12H8L8 16L12 16ZM148 20H144V24H148V20ZM152 20H156V16H152V20ZM152 24H148V28H152V24ZM156 24H160V20H156V24ZM156 28H152V32H156V28ZM160 28H164V24H160V28ZM160 60V64H164V60H160ZM156 60V56H152V60H156ZM156 64V68H160V64H156ZM152 64V60H148V64H152ZM152 68V72H156V68H152ZM148 68V64H144V68H148ZM148 72V76H152V72H148ZM12 72H8V76H12V72ZM12 68H16V64H12V68ZM8 68L4 68L4 72H8V68ZM8 64L12 64L12 60H8V64ZM4 64L4.76837e-07 64L0 68H4V64ZM4 60L8 60L8 56H4V60ZM0 60H-4V64H0V60ZM0 28L9.53674e-07 24L-4 24V28H0ZM4 28L4 32L8 32L8 28L4 28ZM4 24V20H9.53674e-07L4.76837e-07 24L4 24ZM8 24V28H12V24H8ZM8 20L8 16L4 16V20H8ZM12 20L12 24L16 24L16 20L12 20ZM148 12H12V20H148V12ZM152 20V16H144V20H152ZM152 16H148V24H152V16ZM156 24V20H148V24H156ZM156 20H152V28H156V20ZM160 28V24H152V28H160ZM160 24H156V32H160V24ZM164 60V28H156V60H164ZM156 64H160V56H156V64ZM160 64V60H152V64H160ZM152 68H156V60H152V68ZM156 68V64H148V68H156ZM148 72H152V64H148V72ZM152 72V68H144V72H152ZM12 76H148V68H12V76ZM8 68V72H16V68H8ZM8 72H12V64H8V72ZM4 64L4 68L12 68L12 64L4 64ZM4 68H8V60H4V68ZM9.53674e-07 60L4.76837e-07 64L8 64L8 60L9.53674e-07 60ZM0 64H4V56H0V64ZM-4 28V60H4V28H-4ZM4 24L9.53674e-07 24L-9.53674e-07 32L4 32L4 24ZM4.76837e-07 24L0 28L8 28L8 24L4.76837e-07 24ZM8 20H4V28H8V20ZM4 20V24H12V20H4ZM12 16L8 16L8 24L12 24L12 16ZM8 16L8 20L16 20L16 16L8 16Z" fill="black" mask="url(#path-1-inside-1_2381_10145)"/>
<rect x="144" y="60" width="4" height="4" fill="black" fill-opacity="0.45"/>
<rect x="12" y="60" width="4" height="4" fill="black" fill-opacity="0.45"/>
<rect x="16" y="64" width="128" height="4" fill="black" fill-opacity="0.45"/>
<rect x="148" y="56" width="4" height="4" fill="black" fill-opacity="0.45"/>
<rect x="152" y="52" width="4" height="4" fill="black" fill-opacity="0.45"/>
<rect x="8" y="56" width="4" height="4" fill="black" fill-opacity="0.45"/>
<rect x="4" y="52" width="4" height="4" fill="black" fill-opacity="0.45"/>
<rect x="12" y="56" width="4" height="4" fill="white" fill-opacity="0.85"/>
<rect x="144" y="56" width="4" height="4" fill="white" fill-opacity="0.85"/>
<rect x="16" y="60" width="128" height="4" fill="white" fill-opacity="0.85"/>
<rect x="8" y="52" width="4" height="4" fill="white" fill-opacity="0.85"/>
<rect x="148" y="52" width="4" height="4" fill="white" fill-opacity="0.85"/>
<mask id="path-15-inside-2_2381_10145" fill="white">
<path fill-rule="evenodd" clip-rule="evenodd" d="M140 56L20 56V52H16V48H12V8L16 8L16 4L20 4L20 0H140V4L144 4V8L148 8V48H144V52L140 52V56Z"/>
</mask>
<path fill-rule="evenodd" clip-rule="evenodd" d="M140 56L20 56V52H16V48H12V8L16 8L16 4L20 4L20 0H140V4L144 4V8L148 8V48H144V52L140 52V56Z" fill="#867AA0"/>
<path d="M20 56H16V60L20 60L20 56ZM140 56L140 60L144 60V56H140ZM20 52H24V48H20V52ZM16 52H12V56H16V52ZM16 48H20V44H16V48ZM12 48H8V52H12V48ZM12 8L12 4L8 4V8H12ZM16 8L16 12L20 12L20 8L16 8ZM16 4L16 9.53674e-07L12 4.76837e-07L12 4L16 4ZM20 4L20 8L24 8L24 4L20 4ZM20 0V-4H16L16 -9.53674e-07L20 0ZM140 0H144V-4H140V0ZM140 4H136V8L140 8L140 4ZM144 4H148V7.15256e-07L144 -2.38418e-07L144 4ZM144 8H140V12L144 12L144 8ZM148 8H152V4L148 4L148 8ZM148 48V52H152V48H148ZM144 48V44H140V48H144ZM144 52L144 56L148 56V52H144ZM140 52L140 48L136 48V52H140ZM20 60L140 60L140 52L20 52L20 60ZM16 52V56H24V52H16ZM16 56H20V48H16V56ZM12 48V52H20V48H12ZM12 52H16V44H12V52ZM8 8V48H16V8H8ZM16 4L12 4L12 12L16 12L16 4ZM12 4L12 8L20 8L20 4L12 4ZM20 1.43051e-06L16 9.53674e-07L16 8L20 8L20 1.43051e-06ZM16 -9.53674e-07L16 4L24 4L24 9.53674e-07L16 -9.53674e-07ZM140 -4H20V4H140V-4ZM144 4V0H136V4H144ZM144 -2.38418e-07L140 -1.19209e-06L140 8L144 8L144 -2.38418e-07ZM148 8V4H140V8H148ZM148 4L144 4L144 12L148 12L148 4ZM152 48V8H144V48H152ZM144 52H148V44H144V52ZM148 52V48H140V52H148ZM140 56L144 56L144 48L140 48L140 56ZM144 56V52H136V56H144Z" fill="black" mask="url(#path-15-inside-2_2381_10145)"/>
<rect x="16" y="36" width="4" height="4" fill="white" fill-opacity="0.45"/>
<rect x="140" y="36" width="4" height="4" fill="white" fill-opacity="0.45"/>
<rect x="20" y="40" width="120" height="4" fill="white" fill-opacity="0.45"/>
<path fill-rule="evenodd" clip-rule="evenodd" d="M20 40H16V44H20V48H24V52H136V48H140V44H144V40H140V44H20V40Z" fill="black" fill-opacity="0.45"/>
<path d="M50.4922 16H54.4922V20H50.4922V16ZM50.4922 20V24H38.4922V32H34.4922V12H50.4922V16H38.4922V20H50.4922ZM58.4961 12H62.4961V28H78.4961V32H58.4961V12ZM98.5 16H86.5V12H98.5V16ZM102.5 32H98.5V24H86.5V32H82.5V16H86.5V20H98.5V16H102.5V32ZM106.504 12H110.504V16H106.504V12ZM122.504 12H126.504V16H122.504V12ZM110.504 16H114.504V20H110.504V16ZM118.504 16H122.504V20H118.504V16ZM114.504 20H118.504V32H114.504V20Z" fill="black"/>
</svg>
