<svg width="160" height="72" viewBox="0 0 160 72" fill="none" xmlns="http://www.w3.org/2000/svg">
<mask id="path-1-inside-1_2381_10633" fill="white">
<path fill-rule="evenodd" clip-rule="evenodd" d="M12 16H148V20H152V24H156V28H160V60H156V64H152V68H148V72H12V68H8L8 64H4L4 60H0V28L4 28L4 24H8V20L12 20L12 16Z"/>
</mask>
<path fill-rule="evenodd" clip-rule="evenodd" d="M12 16H148V20H152V24H156V28H160V60H156V64H152V68H148V72H12V68H8L8 64H4L4 60H0V28L4 28L4 24H8V20L12 20L12 16Z" fill="#FFF1E8"/>
<path d="M148 16H152V12H148V16ZM12 16V12H8L8 16L12 16ZM148 20H144V24H148V20ZM152 20H156V16H152V20ZM152 24H148V28H152V24ZM156 24H160V20H156V24ZM156 28H152V32H156V28ZM160 28H164V24H160V28ZM160 60V64H164V60H160ZM156 60V56H152V60H156ZM156 64V68H160V64H156ZM152 64V60H148V64H152ZM152 68V72H156V68H152ZM148 68V64H144V68H148ZM148 72V76H152V72H148ZM12 72H8V76H12V72ZM12 68H16V64H12V68ZM8 68H4L4 72H8V68ZM8 64H12L12 60H8V64ZM4 64H4.76837e-07L0 68H4V64ZM4 60H8L8 56H4V60ZM0 60H-4V64H0V60ZM0 28L9.53674e-07 24L-4 24V28H0ZM4 28L4 32L8 32L8 28L4 28ZM4 24V20H9.53674e-07L4.76837e-07 24L4 24ZM8 24V28H12V24H8ZM8 20L8 16L4 16V20H8ZM12 20L12 24L16 24V20L12 20ZM148 12H12V20H148V12ZM152 20V16H144V20H152ZM152 16H148V24H152V16ZM156 24V20H148V24H156ZM156 20H152V28H156V20ZM160 28V24H152V28H160ZM160 24H156V32H160V24ZM164 60V28H156V60H164ZM156 64H160V56H156V64ZM160 64V60H152V64H160ZM152 68H156V60H152V68ZM156 68V64H148V68H156ZM148 72H152V64H148V72ZM152 72V68H144V72H152ZM12 76H148V68H12V76ZM8 68V72H16V68H8ZM8 72H12V64H8V72ZM4 64L4 68H12L12 64H4ZM4 68H8V60H4V68ZM9.53674e-07 60L4.76837e-07 64H8L8 60H9.53674e-07ZM0 64H4V56H0V64ZM-4 28V60H4V28H-4ZM4 24L9.53674e-07 24L-9.53674e-07 32H4L4 24ZM4.76837e-07 24L0 28L8 28V24L4.76837e-07 24ZM8 20H4V28H8V20ZM4 20V24H12V20H4ZM12 16L8 16L8 24H12L12 16ZM8 16L8 20L16 20L16 16L8 16Z" fill="black" mask="url(#path-1-inside-1_2381_10633)"/>
<rect x="144" y="60" width="4" height="4" fill="black" fill-opacity="0.45"/>
<rect x="12" y="60" width="4" height="4" fill="black" fill-opacity="0.45"/>
<rect x="16" y="64" width="128" height="4" fill="black" fill-opacity="0.45"/>
<rect x="148" y="56" width="4" height="4" fill="black" fill-opacity="0.45"/>
<rect x="152" y="52" width="4" height="4" fill="black" fill-opacity="0.45"/>
<rect x="8" y="56" width="4" height="4" fill="black" fill-opacity="0.45"/>
<rect x="4" y="52" width="4" height="4" fill="black" fill-opacity="0.45"/>
<rect x="12" y="56" width="4" height="4" fill="white" fill-opacity="0.85"/>
<rect x="144" y="56" width="4" height="4" fill="white" fill-opacity="0.85"/>
<rect x="16" y="60" width="128" height="4" fill="white" fill-opacity="0.85"/>
<rect x="8" y="52" width="4" height="4" fill="white" fill-opacity="0.85"/>
<rect x="148" y="52" width="4" height="4" fill="white" fill-opacity="0.85"/>
<mask id="path-15-inside-2_2381_10633" fill="white">
<path fill-rule="evenodd" clip-rule="evenodd" d="M140 56L20 56V52H16V48H12V16L16 16L16 12L20 12L20 8H140V12L144 12V16L148 16V48H144V52L140 52V56Z"/>
</mask>
<path fill-rule="evenodd" clip-rule="evenodd" d="M140 56L20 56V52H16V48H12V16L16 16L16 12L20 12L20 8H140V12L144 12V16L148 16V48H144V52L140 52V56Z" fill="#C2C3C7"/>
<path d="M20 56H16V60H20V56ZM140 56V60H144V56H140ZM20 52H24V48H20V52ZM16 52H12V56H16V52ZM16 48H20V44H16V48ZM12 48H8V52H12V48ZM12 16L12 12L8 12V16H12ZM16 16L16 20L20 20L20 16L16 16ZM16 12L16 8L12 8L12 12L16 12ZM20 12L20 16L24 16L24 12L20 12ZM20 8V4H16L16 8L20 8ZM140 8H144V4H140V8ZM140 12H136V16L140 16V12ZM144 12H148V8L144 8V12ZM144 16H140V20L144 20V16ZM148 16H152V12L148 12V16ZM148 48V52H152V48H148ZM144 48V44H140V48H144ZM144 52V56L148 56V52H144ZM140 52V48L136 48V52H140ZM20 60L140 60V52L20 52V60ZM16 52V56H24V52H16ZM16 56H20V48H16V56ZM12 48V52H20V48H12ZM12 52H16V44H12V52ZM8 16V48H16V16H8ZM16 12L12 12L12 20L16 20L16 12ZM12 12L12 16L20 16L20 12L12 12ZM20 8L16 8L16 16H20L20 8ZM16 8L16 12L24 12L24 8L16 8ZM140 4H20V12H140V4ZM144 12V8H136V12H144ZM144 8L140 8V16L144 16V8ZM148 16V12H140V16H148ZM148 12L144 12V20L148 20V12ZM152 48V16H144V48H152ZM144 52H148V44H144V52ZM148 52V48H140V52H148ZM140 56L144 56V48L140 48V56ZM144 56V52H136V56H144Z" fill="black" mask="url(#path-15-inside-2_2381_10633)"/>
<rect x="16" y="40" width="4" height="4" fill="white" fill-opacity="0.45"/>
<rect x="140" y="40" width="4" height="4" fill="white" fill-opacity="0.45"/>
<rect x="20" y="44" width="120" height="4" fill="white" fill-opacity="0.45"/>
<rect x="24" y="48" width="112" height="4" fill="black" fill-opacity="0.45"/>
<path d="M27.3911 22H29.9911V29.8H27.3911V22ZM32.5911 22H35.1911V29.8H32.5911V22ZM37.7911 22H40.3911V29.8H37.7911V22ZM29.9911 29.8H32.5911V35H29.9911V29.8ZM35.1911 29.8H37.7911V35H35.1911V29.8ZM53.3937 24.6H45.5937V22H53.3937V24.6ZM55.9937 35H53.3937V29.8H45.5937V35H42.9937V24.6H45.5937V27.2H53.3937V24.6H55.9937V35ZM63.7962 24.6H58.5962V22H71.5962V24.6H66.3962V32.4H71.5962V35H58.5962V32.4H63.7962V24.6ZM79.3987 24.6H74.1987V22H87.1987V24.6H81.9987V35H79.3987V24.6ZM95.0013 24.6H89.8013V22H102.801V24.6H97.6013V32.4H102.801V35H89.8013V32.4H95.0013V24.6ZM110.604 27.2H113.204V29.8H110.604V27.2ZM105.404 22H108.004V24.6H110.604V27.2H108.004V35H105.404V22ZM115.804 22H118.404V35H115.804V32.4H113.204V29.8H115.804V22ZM134.006 22V24.6H123.606V22H134.006ZM121.006 24.6H123.606V32.4H121.006V24.6ZM134.006 35H123.606V32.4H131.406V29.8H128.806V27.2H134.006V35Z" fill="black"/>
</svg>
