<svg width="37" height="42" viewBox="0 0 37 42" fill="none" xmlns="http://www.w3.org/2000/svg">
<rect x="2" y="4" width="15" height="4" fill="#FFF1E8"/>
<rect width="15" height="4" transform="matrix(-1 0 0 1 35 4)" fill="#FFF1E8"/>
<rect x="2" y="8" width="15" height="9" fill="#FFF1E8"/>
<rect width="15" height="9" transform="matrix(-1 0 0 1 35 8)" fill="#FFF1E8"/>
<rect x="5" y="17" width="12" height="3" fill="#FFF1E8"/>
<rect width="12" height="3" transform="matrix(-1 0 0 1 32 17)" fill="#FFF1E8"/>
<rect x="8" y="20" width="9" height="3" fill="#FFF1E8"/>
<rect width="9" height="3" transform="matrix(-1 0 0 1 29 20)" fill="#FFF1E8"/>
<rect x="11" y="23" width="6" height="3" fill="#FFF1E8"/>
<rect width="6" height="3" transform="matrix(-1 0 0 1 26 23)" fill="#FFF1E8"/>
<rect x="14" y="26" width="3" height="3" fill="#FFF1E8"/>
<rect x="17" y="8" width="3" height="24" fill="#FFF1E8"/>
<rect width="3" height="3" transform="matrix(-1 0 0 1 23 26)" fill="#FFF1E8"/>
<rect x="5" y="2" width="8" height="2" fill="#FFF1E8"/>
<rect x="5" width="8" height="2" fill="black"/>
<rect x="13" y="2" width="4" height="2" fill="black"/>
<rect x="20" y="2" width="4" height="2" fill="black"/>
<rect x="17" y="4" width="3" height="4" fill="black"/>
<rect width="8" height="2" transform="matrix(-1 0 0 1 32 0)" fill="black"/>
<rect x="2" y="2" width="3" height="2" fill="black"/>
<rect width="3" height="2" transform="matrix(-1 0 0 1 35 2)" fill="black"/>
<rect x="2" y="17" width="3" height="10" fill="black"/>
<rect width="3" height="10" transform="matrix(-1 0 0 1 35 17)" fill="black"/>
<rect x="5" y="20" width="3" height="10" fill="black"/>
<rect width="3" height="10" transform="matrix(-1 0 0 1 32 20)" fill="black"/>
<rect x="8" y="23" width="3" height="10" fill="black"/>
<rect width="3" height="10" transform="matrix(-1 0 0 1 29 23)" fill="black"/>
<rect x="11" y="26" width="3" height="10" fill="black"/>
<rect width="3" height="10" transform="matrix(-1 0 0 1 26 26)" fill="black"/>
<rect x="14" y="29" width="3" height="10" fill="black"/>
<rect width="3" height="10" transform="matrix(-1 0 0 1 23 29)" fill="black"/>
<rect x="17" y="32" width="3" height="10" fill="black"/>
<rect y="4" width="2" height="20" fill="black"/>
<rect width="2" height="20" transform="matrix(-1 0 0 1 37 4)" fill="black"/>
<rect width="8" height="2" transform="matrix(-1 0 0 1 32 2)" fill="#FFF1E8"/>
</svg>
