<svg width="45" height="53" viewBox="0 0 45 53" fill="none" xmlns="http://www.w3.org/2000/svg">
<g id="Component 32" clip-path="url(#clip0_2043_6187)">
<path id="Union" fill-rule="evenodd" clip-rule="evenodd" d="M25 0H20V2L18 2V9H16V14H0V16V26H2L2 16H16V14H18V9H20V2H25V9H27V14H29V16H43V18H41V20H39V22H37V24H35V28H33V32H35V37H37V45H32V41H30V39H26V37H19V39H15V41H13V45H8V37H10L10 32H12V28H10V24H8L8 22H6L6 20H4L4 18H2L2 28H4L4 20L4 30H6L6 32H8L8 37H6L6 53H8H13V51H15V49H19V47H26V49H30V51H32V53H37H39V37H37V32H39V30H41V28H43V26H45V16V14H29V9H27V2L25 2V0Z" fill="black"/>
<path id="Union_2" fill-rule="evenodd" clip-rule="evenodd" d="M25 2H20V9H18V14H16V16H2V18H4V20H6V22H8V24H10V28H12V32H10V37H8V39V41V43V45H13V43V41H15V39H19V37H26V39H30V41H32V43V45H37V43V41V39V37H35V32H33V28H35V24H37V22H39V20H41V18H43V16H29V14H27V9H25V2Z" fill="#FFF1E8"/>
</g>
<defs>
<clipPath id="clip0_2043_6187">
<rect width="45" height="53" fill="white"/>
</clipPath>
</defs>
</svg>
