<svg width="24" height="24" viewBox="0 0 24 24" fill="none" xmlns="http://www.w3.org/2000/svg">
<g id="Frame 37215" clip-path="url(#clip0_3164_2323)">
<rect id="Rectangle 40214" x="12.8333" width="2" height="2" transform="rotate(90 12.8333 0)" fill="black"/>
<rect id="Rectangle 40222" x="11.1667" y="24" width="2" height="2" transform="rotate(-90 11.1667 24)" fill="black"/>
<rect id="Rectangle 40215" x="16" y="4" width="2" height="8" transform="rotate(90 16 4)" fill="black"/>
<rect id="Rectangle 40223" x="8" y="20" width="2" height="8" transform="rotate(-90 8 20)" fill="black"/>
<rect id="Rectangle 40224" x="24" y="12.833" width="2" height="2" transform="rotate(-180 24 12.833)" fill="black"/>
<rect id="Rectangle 40225" y="11.167" width="2" height="2" fill="black"/>
<rect id="Rectangle 40226" x="20" y="16" width="2" height="8" transform="rotate(-180 20 16)" fill="black"/>
<rect id="Rectangle 40227" x="4" y="8" width="2" height="8" fill="black"/>
<rect id="Rectangle 40219" x="18" y="6" width="2" height="2" transform="rotate(90 18 6)" fill="black"/>
<rect id="Rectangle 40228" x="4" y="20" width="2" height="2" transform="rotate(90 4 20)" fill="black"/>
<rect id="Rectangle 40220" x="20" y="4" width="2" height="2" transform="rotate(90 20 4)" fill="black"/>
<rect id="Rectangle 40229" x="6" y="18" width="2" height="2" transform="rotate(90 6 18)" fill="black"/>
<rect id="Rectangle 40221" x="22" y="2" width="2" height="2" transform="rotate(90 22 2)" fill="black"/>
<rect id="Rectangle 40230" x="8" y="16" width="2" height="2" transform="rotate(90 8 16)" fill="black"/>
<rect id="Rectangle 40231" x="18" y="18" width="2" height="2" transform="rotate(-180 18 18)" fill="black"/>
<rect id="Rectangle 40232" x="4" y="4" width="2" height="2" transform="rotate(-180 4 4)" fill="black"/>
<rect id="Rectangle 40233" x="20" y="20" width="2" height="2" transform="rotate(-180 20 20)" fill="black"/>
<rect id="Rectangle 40234" x="6" y="6" width="2" height="2" transform="rotate(-180 6 6)" fill="black"/>
<rect id="Rectangle 40235" x="22" y="22" width="2" height="2" transform="rotate(-180 22 22)" fill="black"/>
<rect id="Rectangle 40236" x="8" y="8" width="2" height="2" transform="rotate(-180 8 8)" fill="black"/>
<rect id="Rectangle 40217" x="16" y="8" width="8" height="8" transform="rotate(90 16 8)" fill="black"/>
</g>
<defs>
<clipPath id="clip0_3164_2323">
<rect width="24" height="24" fill="white"/>
</clipPath>
</defs>
</svg>
