<svg width="14" height="14" viewBox="0 0 14 14" fill="none" xmlns="http://www.w3.org/2000/svg">
<circle cx="7" cy="7" r="6.4" fill="#C2C3C7" stroke="black" stroke-width="1.2"/>
<path d="M8 11C8 11.5523 7.55228 12 7 12C6.44772 12 6 11.5523 6 11C6 10.4477 6.44772 10 7 10C7.55228 10 8 10.4477 8 11Z" fill="black"/>
<path fill-rule="evenodd" clip-rule="evenodd" d="M4 4.85C4 3.27599 5.27599 2 6.85 2C8.42401 2 9.7 3.27599 9.7 4.85V5.0427C9.7 6.06004 9.19156 7.01007 8.34508 7.57439L7.89623 7.87362C7.61745 8.05948 7.45 8.37236 7.45 8.70742V9.35H6.25V8.70742C6.25 7.97114 6.61797 7.28357 7.23059 6.87516L7.67944 6.57593C8.19208 6.23417 8.5 5.65882 8.5 5.0427V4.85C8.5 3.93873 7.76127 3.2 6.85 3.2C5.93873 3.2 5.2 3.93873 5.2 4.85H4Z" fill="black"/>
</svg>
