<svg width="83" height="10" viewBox="0 0 83 10" fill="none" xmlns="http://www.w3.org/2000/svg">
<mask id="path-1-inside-1_3372_11720" fill="white">
<path d="M10.4932 0V2H2.49316V0H10.4932ZM0.493164 2H2.49316V4H0.493164V2ZM8.49316 4V6H2.49316V4H8.49316ZM8.49316 6H10.4932V8H8.49316V6ZM8.49316 8V10H0.493164V8H8.49316ZM16.4951 2H12.4951V0H22.4951V2H18.4951V8H22.4951V10H12.4951V8H16.4951V2ZM34.4971 0V2H26.4971V0H34.4971ZM24.4971 2H26.4971V8H24.4971V2ZM34.4971 10H26.4971V8H32.4971V6H30.4971V4H34.4971V10ZM40.499 4H42.499V6H40.499V4ZM36.499 0H38.499V2H40.499V4H38.499V10H36.499V0ZM44.499 0H46.499V10H44.499V8H42.499V6H44.499V0ZM64.5029 2H60.5029V0H70.5029V2H66.5029V8H70.5029V10H60.5029V8H64.5029V2ZM76.5049 4H78.5049V6H76.5049V4ZM72.5049 0H74.5049V2H76.5049V4H74.5049V10H72.5049V0ZM80.5049 0H82.5049V10H80.5049V8H78.5049V6H80.5049V0Z"/>
</mask>
<path d="M10.4932 0V2H2.49316V0H10.4932ZM0.493164 2H2.49316V4H0.493164V2ZM8.49316 4V6H2.49316V4H8.49316ZM8.49316 6H10.4932V8H8.49316V6ZM8.49316 8V10H0.493164V8H8.49316ZM16.4951 2H12.4951V0H22.4951V2H18.4951V8H22.4951V10H12.4951V8H16.4951V2ZM34.4971 0V2H26.4971V0H34.4971ZM24.4971 2H26.4971V8H24.4971V2ZM34.4971 10H26.4971V8H32.4971V6H30.4971V4H34.4971V10ZM40.499 4H42.499V6H40.499V4ZM36.499 0H38.499V2H40.499V4H38.499V10H36.499V0ZM44.499 0H46.499V10H44.499V8H42.499V6H44.499V0ZM64.5029 2H60.5029V0H70.5029V2H66.5029V8H70.5029V10H60.5029V8H64.5029V2ZM76.5049 4H78.5049V6H76.5049V4ZM72.5049 0H74.5049V2H76.5049V4H74.5049V10H72.5049V0ZM80.5049 0H82.5049V10H80.5049V8H78.5049V6H80.5049V0Z" fill="#FFF1E8"/>
<path d="M10.4932 0H14.4932V-4H10.4932V0ZM10.4932 2V6H14.4932V2H10.4932ZM2.49316 2H-1.50684V6H2.49316V2ZM2.49316 0V-4H-1.50684V0H2.49316ZM0.493164 2V-2H-3.50684V2H0.493164ZM2.49316 2H6.49316V-2H2.49316V2ZM2.49316 4V8H6.49316V4H2.49316ZM0.493164 4H-3.50684V8H0.493164V4ZM8.49316 4H12.4932V0H8.49316V4ZM8.49316 6V10H12.4932V6H8.49316ZM2.49316 6H-1.50684V10H2.49316V6ZM2.49316 4V0H-1.50684V4H2.49316ZM8.49316 6V2H4.49316V6H8.49316ZM10.4932 6H14.4932V2H10.4932V6ZM10.4932 8V12H14.4932V8H10.4932ZM8.49316 8H4.49316V12H8.49316V8ZM8.49316 8H12.4932V4H8.49316V8ZM8.49316 10V14H12.4932V10H8.49316ZM0.493164 10H-3.50684V14H0.493164V10ZM0.493164 8V4H-3.50684V8H0.493164ZM6.49316 0V2H14.4932V0H6.49316ZM10.4932 -2H2.49316V6H10.4932V-2ZM6.49316 2V0H-1.50684V2H6.49316ZM2.49316 4H10.4932V-4H2.49316V4ZM0.493164 6H2.49316V-2H0.493164V6ZM-1.50684 2V4H6.49316V2H-1.50684ZM2.49316 0H0.493164V8H2.49316V0ZM4.49316 4V2H-3.50684V4H4.49316ZM4.49316 4V6H12.4932V4H4.49316ZM8.49316 2H2.49316V10H8.49316V2ZM6.49316 6V4H-1.50684V6H6.49316ZM2.49316 8H8.49316V0H2.49316V8ZM8.49316 10H10.4932V2H8.49316V10ZM6.49316 6V8H14.4932V6H6.49316ZM10.4932 4H8.49316V12H10.4932V4ZM12.4932 8V6H4.49316V8H12.4932ZM4.49316 8V10H12.4932V8H4.49316ZM8.49316 6H0.493164V14H8.49316V6ZM4.49316 10V8H-3.50684V10H4.49316ZM0.493164 12H8.49316V4H0.493164V12ZM16.4951 2H20.4951V-2H16.4951V2ZM12.4951 2H8.49512V6H12.4951V2ZM12.4951 0V-4H8.49512V0H12.4951ZM22.4951 0H26.4951V-4H22.4951V0ZM22.4951 2V6H26.4951V2H22.4951ZM18.4951 2V-2H14.4951V2H18.4951ZM18.4951 8H14.4951V12H18.4951V8ZM22.4951 8H26.4951V4H22.4951V8ZM22.4951 10V14H26.4951V10H22.4951ZM12.4951 10H8.49512V14H12.4951V10ZM12.4951 8V4H8.49512V8H12.4951ZM16.4951 8V12H20.4951V8H16.4951ZM16.4951 -2H12.4951V6H16.4951V-2ZM16.4951 2V0H8.49512V2H16.4951ZM12.4951 4H22.4951V-4H12.4951V4ZM18.4951 0V2H26.4951V0H18.4951ZM22.4951 -2H18.4951V6H22.4951V-2ZM14.4951 2V8H22.4951V2H14.4951ZM18.4951 12H22.4951V4H18.4951V12ZM18.4951 8V10H26.4951V8H18.4951ZM22.4951 6H12.4951V14H22.4951V6ZM16.4951 10V8H8.49512V10H16.4951ZM12.4951 12H16.4951V4H12.4951V12ZM20.4951 8V2H12.4951V8H20.4951ZM34.4971 0H38.4971V-4H34.4971V0ZM34.4971 2V6H38.4971V2H34.4971ZM26.4971 2H22.4971V6H26.4971V2ZM26.4971 0V-4H22.4971V0H26.4971ZM24.4971 2V-2H20.4971V2H24.4971ZM26.4971 2H30.4971V-2H26.4971V2ZM26.4971 8V12H30.4971V8H26.4971ZM24.4971 8H20.4971V12H24.4971V8ZM34.4971 10V14H38.4971V10H34.4971ZM26.4971 10H22.4971V14H26.4971V10ZM26.4971 8V4H22.4971V8H26.4971ZM32.4971 8V12H36.4971V8H32.4971ZM32.4971 6H36.4971V2H32.4971V6ZM30.4971 6H26.4971V10H30.4971V6ZM30.4971 4V0H26.4971V4H30.4971ZM34.4971 4H38.4971V0H34.4971V4ZM30.4971 0V2H38.4971V0H30.4971ZM34.4971 -2H26.4971V6H34.4971V-2ZM30.4971 2V0H22.4971V2H30.4971ZM26.4971 4H34.4971V-4H26.4971V4ZM24.4971 6H26.4971V-2H24.4971V6ZM22.4971 2V8H30.4971V2H22.4971ZM26.4971 4H24.4971V12H26.4971V4ZM28.4971 8V2H20.4971V8H28.4971ZM34.4971 6H26.4971V14H34.4971V6ZM30.4971 10V8H22.4971V10H30.4971ZM26.4971 12H32.4971V4H26.4971V12ZM36.4971 8V6H28.4971V8H36.4971ZM32.4971 2H30.4971V10H32.4971V2ZM34.4971 6V4H26.4971V6H34.4971ZM30.4971 8H34.4971V0H30.4971V8ZM30.4971 4V10H38.4971V4H30.4971ZM40.499 4V0H36.499V4H40.499ZM42.499 4H46.499V0H42.499V4ZM42.499 6V10H46.499V6H42.499ZM40.499 6H36.499V10H40.499V6ZM36.499 0V-4H32.499V0H36.499ZM38.499 0H42.499V-4H38.499V0ZM38.499 2H34.499V6H38.499V2ZM40.499 2H44.499V-2H40.499V2ZM40.499 4V8H44.499V4H40.499ZM38.499 4V0H34.499V4H38.499ZM38.499 10V14H42.499V10H38.499ZM36.499 10H32.499V14H36.499V10ZM44.499 0V-4H40.499V0H44.499ZM46.499 0H50.499V-4H46.499V0ZM46.499 10V14H50.499V10H46.499ZM44.499 10H40.499V14H44.499V10ZM44.499 8H48.499V4H44.499V8ZM42.499 8H38.499V12H42.499V8ZM42.499 6V2H38.499V6H42.499ZM44.499 6V10H48.499V6H44.499ZM40.499 8H42.499V0H40.499V8ZM38.499 4V6H46.499V4H38.499ZM42.499 2H40.499V10H42.499V2ZM44.499 6V4H36.499V6H44.499ZM36.499 4H38.499V-4H36.499V4ZM34.499 0V2H42.499V0H34.499ZM38.499 6H40.499V-2H38.499V6ZM36.499 2V4H44.499V2H36.499ZM40.499 0H38.499V8H40.499V0ZM34.499 4V10H42.499V4H34.499ZM38.499 6H36.499V14H38.499V6ZM40.499 10V0H32.499V10H40.499ZM44.499 4H46.499V-4H44.499V4ZM42.499 0V10H50.499V0H42.499ZM46.499 6H44.499V14H46.499V6ZM48.499 10V8H40.499V10H48.499ZM44.499 4H42.499V12H44.499V4ZM46.499 8V6H38.499V8H46.499ZM42.499 10H44.499V2H42.499V10ZM48.499 6V0H40.499V6H48.499ZM64.5029 2H68.5029V-2H64.5029V2ZM60.5029 2H56.5029V6H60.5029V2ZM60.5029 0V-4H56.5029V0H60.5029ZM70.5029 0H74.5029V-4H70.5029V0ZM70.5029 2V6H74.5029V2H70.5029ZM66.5029 2V-2H62.5029V2H66.5029ZM66.5029 8H62.5029V12H66.5029V8ZM70.5029 8H74.5029V4H70.5029V8ZM70.5029 10V14H74.5029V10H70.5029ZM60.5029 10H56.5029V14H60.5029V10ZM60.5029 8V4H56.5029V8H60.5029ZM64.5029 8V12H68.5029V8H64.5029ZM64.5029 -2H60.5029V6H64.5029V-2ZM64.5029 2V0H56.5029V2H64.5029ZM60.5029 4H70.5029V-4H60.5029V4ZM66.5029 0V2H74.5029V0H66.5029ZM70.5029 -2H66.5029V6H70.5029V-2ZM62.5029 2V8H70.5029V2H62.5029ZM66.5029 12H70.5029V4H66.5029V12ZM66.5029 8V10H74.5029V8H66.5029ZM70.5029 6H60.5029V14H70.5029V6ZM64.5029 10V8H56.5029V10H64.5029ZM60.5029 12H64.5029V4H60.5029V12ZM68.5029 8V2H60.5029V8H68.5029ZM76.5049 4V0H72.5049V4H76.5049ZM78.5049 4H82.5049V0H78.5049V4ZM78.5049 6V10H82.5049V6H78.5049ZM76.5049 6H72.5049V10H76.5049V6ZM72.5049 0V-4H68.5049V0H72.5049ZM74.5049 0H78.5049V-4H74.5049V0ZM74.5049 2H70.5049V6H74.5049V2ZM76.5049 2H80.5049V-2H76.5049V2ZM76.5049 4V8H80.5049V4H76.5049ZM74.5049 4V0H70.5049V4H74.5049ZM74.5049 10V14H78.5049V10H74.5049ZM72.5049 10H68.5049V14H72.5049V10ZM80.5049 0V-4H76.5049V0H80.5049ZM82.5049 0H86.5049V-4H82.5049V0ZM82.5049 10V14H86.5049V10H82.5049ZM80.5049 10H76.5049V14H80.5049V10ZM80.5049 8H84.5049V4H80.5049V8ZM78.5049 8H74.5049V12H78.5049V8ZM78.5049 6V2H74.5049V6H78.5049ZM80.5049 6V10H84.5049V6H80.5049ZM76.5049 8H78.5049V0H76.5049V8ZM74.5049 4V6H82.5049V4H74.5049ZM78.5049 2H76.5049V10H78.5049V2ZM80.5049 6V4H72.5049V6H80.5049ZM72.5049 4H74.5049V-4H72.5049V4ZM70.5049 0V2H78.5049V0H70.5049ZM74.5049 6H76.5049V-2H74.5049V6ZM72.5049 2V4H80.5049V2H72.5049ZM76.5049 0H74.5049V8H76.5049V0ZM70.5049 4V10H78.5049V4H70.5049ZM74.5049 6H72.5049V14H74.5049V6ZM76.5049 10V0H68.5049V10H76.5049ZM80.5049 4H82.5049V-4H80.5049V4ZM78.5049 0V10H86.5049V0H78.5049ZM82.5049 6H80.5049V14H82.5049V6ZM84.5049 10V8H76.5049V10H84.5049ZM80.5049 4H78.5049V12H80.5049V4ZM82.5049 8V6H74.5049V8H82.5049ZM78.5049 10H80.5049V2H78.5049V10ZM84.5049 6V0H76.5049V6H84.5049Z" fill="black" mask="url(#path-1-inside-1_3372_11720)"/>
</svg>
