<svg width="12" height="12" viewBox="0 0 12 12" fill="none" xmlns="http://www.w3.org/2000/svg">
<path d="M4.26316 0H10.8947C11.1879 3.9259e-09 11.469 0.116447 11.6763 0.323724C11.8836 0.531001 12 0.812129 12 1.10526V7.73684C12 8.02998 11.8836 8.3111 11.6763 8.51838C11.469 8.72566 11.1879 8.8421 10.8947 8.8421H4.26316C3.97002 8.8421 3.6889 8.72566 3.48162 8.51838C3.27434 8.3111 3.15789 8.02998 3.15789 7.73684V1.10526C3.15789 0.812129 3.27434 0.531001 3.48162 0.323724C3.6889 0.116447 3.97002 0 4.26316 0ZM4.26316 0.947369C4.22128 0.947369 4.18112 0.964004 4.15151 0.993615C4.1219 1.02323 4.10526 1.06339 4.10526 1.10526V7.73684C4.10526 7.75758 4.10935 7.77811 4.11728 7.79727C4.12522 7.81642 4.13685 7.83383 4.15151 7.84849C4.16617 7.86315 4.18358 7.87478 4.20273 7.88272C4.22189 7.89065 4.24242 7.89474 4.26316 7.89474H10.8947C10.9366 7.89474 10.9768 7.8781 11.0064 7.84849C11.036 7.81888 11.0526 7.77872 11.0526 7.73684V1.10526C11.0526 1.06339 11.036 1.02323 11.0064 0.993615C10.9768 0.964004 10.9366 0.947369 10.8947 0.947369H4.26316ZM7.89474 9.78947C7.89474 9.66385 7.94464 9.54336 8.03347 9.45453C8.12231 9.36569 8.24279 9.31579 8.36842 9.31579C8.49405 9.31579 8.61453 9.36569 8.70337 9.45453C8.7922 9.54336 8.8421 9.66385 8.8421 9.78947V10.8947C8.8421 11.1879 8.72566 11.469 8.51838 11.6763C8.3111 11.8836 8.02998 12 7.73684 12H1.10526C0.812129 12 0.531001 11.8836 0.323724 11.6763C0.116447 11.469 3.9259e-09 11.1879 0 10.8947V4.26316C0 3.97002 0.116447 3.6889 0.323724 3.48162C0.531001 3.27434 0.812129 3.15789 1.10526 3.15789H2.21053C2.33616 3.15789 2.45664 3.2078 2.54547 3.29663C2.6343 3.38547 2.68421 3.50595 2.68421 3.63158C2.68421 3.75721 2.6343 3.87769 2.54547 3.96652C2.45664 4.05536 2.33616 4.10526 2.21053 4.10526H1.10526C1.06339 4.10526 1.02323 4.1219 0.993615 4.15151C0.964004 4.18112 0.947369 4.22128 0.947369 4.26316V10.8947C0.947369 10.9366 0.964004 10.9768 0.993615 11.0064C1.02323 11.036 1.06339 11.0526 1.10526 11.0526H7.73684C7.77872 11.0526 7.81888 11.036 7.84849 11.0064C7.8781 10.9768 7.89474 10.9366 7.89474 10.8947V9.78947Z" fill="black" fill-opacity="0.45"/>
</svg>
