<svg width="28" height="31" viewBox="0 0 28 31" fill="none" xmlns="http://www.w3.org/2000/svg">
<rect width="27" height="24" transform="matrix(-4.37114e-08 1 1 4.37114e-08 2 2)" fill="#FFF1E8"/>
<rect x="2" y="29" width="24" height="2" fill="black"/>
<rect x="7" y="17" width="14" height="2" fill="black"/>
<rect x="9" y="12" width="10" height="2" fill="black"/>
<rect x="2" width="24" height="2" fill="black"/>
<rect x="2" y="2" width="27" height="2" transform="rotate(90 2 2)" fill="black"/>
<rect x="28" y="2" width="27" height="2" transform="rotate(90 28 2)" fill="black"/>
<rect x="9" y="2" width="10" height="2" transform="rotate(90 9 2)" fill="black"/>
<rect width="10" height="10" transform="matrix(-4.37114e-08 1 1 4.37114e-08 9 2)" fill="#C2C3C7"/>
<rect x="7" y="19" width="10" height="2" transform="rotate(90 7 19)" fill="black"/>
<rect x="21" y="2" width="10" height="2" transform="rotate(90 21 2)" fill="black"/>
<rect x="17" y="6" width="4" height="2" transform="rotate(90 17 6)" fill="black"/>
<rect x="23" y="19" width="10" height="2" transform="rotate(90 23 19)" fill="black"/>
<rect x="9" y="2" width="10" height="2" fill="black"/>
</svg>
