<svg width="26" height="31" viewBox="0 0 26 31" fill="none" xmlns="http://www.w3.org/2000/svg">
<rect x="22" y="25" width="18" height="2" transform="rotate(-180 22 25)" fill="black"/>
<rect x="22" y="27" width="18" height="2" transform="rotate(-180 22 27)" fill="#FFF1E8"/>
<rect x="24" y="27" width="2" height="2" transform="rotate(-180 24 27)" fill="black"/>
<rect x="14" y="23" width="2" height="2" transform="rotate(-180 14 23)" fill="black"/>
<rect x="15" y="21" width="2" height="2" transform="rotate(-180 15 21)" fill="black"/>
<rect x="16" y="19" width="2" height="2" transform="rotate(-180 16 19)" fill="black"/>
<rect x="17" y="17" width="2" height="2" transform="rotate(-180 17 17)" fill="black"/>
<rect x="18" y="15" width="2" height="2" transform="rotate(-180 18 15)" fill="black"/>
<rect x="19" y="13" width="2" height="2" transform="rotate(-180 19 13)" fill="black"/>
<rect x="4" y="27" width="2" height="2" transform="rotate(-180 4 27)" fill="black"/>
<rect x="26" y="29" width="2" height="2" transform="rotate(-180 26 29)" fill="black"/>
<rect x="2" y="29" width="2" height="2" transform="rotate(-180 2 29)" fill="black"/>
<rect x="24" y="29" width="22" height="2" transform="rotate(-180 24 29)" fill="#FFF1E8"/>
<rect x="15" y="2" width="8" height="8" fill="#C2C3C7"/>
<rect x="15" y="10" width="8" height="2" fill="black"/>
<rect x="15" width="8" height="2" fill="black"/>
<rect x="13" y="4" width="2" height="4" fill="black"/>
<rect x="25" y="8" width="2" height="4" transform="rotate(-180 25 8)" fill="black"/>
<rect x="15" y="8" width="2" height="2" fill="black"/>
<rect x="23" y="4" width="2" height="2" transform="rotate(-180 23 4)" fill="black"/>
<rect x="15" y="2" width="2" height="2" fill="black"/>
<rect x="23" y="10" width="2" height="2" transform="rotate(-180 23 10)" fill="black"/>
<rect y="29" width="26" height="2" fill="black"/>
</svg>
