<svg width="32" height="31" viewBox="0 0 32 31" fill="none" xmlns="http://www.w3.org/2000/svg">
<rect x="6" y="2" width="20" height="3" fill="#FFF1E8"/>
<rect x="4" y="5" width="5" height="3" fill="#FFF1E8"/>
<rect x="23" y="5" width="5" height="3" fill="#FFF1E8"/>
<rect x="9" y="10" width="14" height="9" fill="#C2C3C7"/>
<rect x="2" y="19" width="7" height="2" fill="#FFF1E8"/>
<rect x="23" y="19" width="7" height="2" fill="#FFF1E8"/>
<rect x="5" y="21" width="22" height="2" fill="#FFF1E8"/>
<rect x="7" y="27" width="18" height="2" fill="#FFF1E8"/>
<rect x="5" y="25" width="2" height="2" fill="#FFF1E8"/>
<rect x="25" y="25" width="2" height="2" fill="#FFF1E8"/>
<rect x="3" y="23" width="2" height="2" fill="#FFF1E8"/>
<rect x="27" y="23" width="2" height="2" fill="#FFF1E8"/>
<rect x="7" y="23" width="18" height="2" fill="#FFF1E8"/>
<rect x="2" y="8" width="5" height="11" fill="#FFF1E8"/>
<rect x="25" y="8" width="5" height="11" fill="#FFF1E8"/>
<path fill-rule="evenodd" clip-rule="evenodd" d="M6 0H26V2H6V0ZM4 5V2H6V5H4ZM2 8V5H4V8H2ZM2 21H0V8H2V21ZM5 23V21H2V23H1V25H3V27H5V31H7H25V29H27V27H29V25H31V23H30V21H32V8H30V5H28V2H26V5H28V8H30V21H27V23H25V25H7V23H5ZM5 25H7V27H5V25ZM25 27V29H7V27H25ZM5 25V23H3V25H5ZM27 25H29V23H27V25ZM27 25H25V27H27V25ZM9 5H23V8H25V19H23V10H9V19H7V8H9V5ZM9 19H23V21H9V19Z" fill="black"/>
</svg>
