<svg width="324" height="68" viewBox="0 0 324 68" fill="none" xmlns="http://www.w3.org/2000/svg">
<g filter="url(#filter0_d_2381_10737)">
<mask id="path-1-inside-1_2381_10737" fill="white">
<path fill-rule="evenodd" clip-rule="evenodd" d="M4 0H316V4H320V60H316V64H0L4 64V60H0V4H4V0Z"/>
</mask>
<path fill-rule="evenodd" clip-rule="evenodd" d="M4 0H316V4H320V60H316V64H0L4 64V60H0V4H4V0Z" fill="#FFF1E8"/>
<path d="M316 0H320V-4H316V0ZM4 0V-4H0V0H4ZM316 4H312V8H316V4ZM320 4H324V0H320V4ZM320 60V64H324V60H320ZM316 60V56H312V60H316ZM316 64V68H320V64H316ZM4 64L4.00002 68L8 68V64H4ZM4 60H8V56H4V60ZM0 60H-4V64H0V60ZM0 4V0H-4V4H0ZM4 4V8H8V4H4ZM316 -4H4V4H316V-4ZM320 4V0H312V4H320ZM320 0H316V8H320V0ZM324 60V4H316V60H324ZM316 64H320V56H316V64ZM320 64V60H312V64H320ZM0 68H316V60H0V68ZM3.99998 60L-2.28882e-05 60L2.28882e-05 68L4.00002 68L3.99998 60ZM0 60V64H8V60H0ZM0 64H4V56H0V64ZM-4 4V60H4V4H-4ZM4 0H0V8H4V0ZM0 0V4H8V0H0Z" fill="black" mask="url(#path-1-inside-1_2381_10737)"/>
</g>
<defs>
<filter id="filter0_d_2381_10737" x="0" y="0" width="324" height="68" filterUnits="userSpaceOnUse" color-interpolation-filters="sRGB">
<feFlood flood-opacity="0" result="BackgroundImageFix"/>
<feColorMatrix in="SourceAlpha" type="matrix" values="0 0 0 0 0 0 0 0 0 0 0 0 0 0 0 0 0 0 127 0" result="hardAlpha"/>
<feOffset dx="4" dy="4"/>
<feComposite in2="hardAlpha" operator="out"/>
<feColorMatrix type="matrix" values="0 0 0 0 0 0 0 0 0 0 0 0 0 0 0 0 0 0 1 0"/>
<feBlend mode="normal" in2="BackgroundImageFix" result="effect1_dropShadow_2381_10737"/>
<feBlend mode="normal" in="SourceGraphic" in2="effect1_dropShadow_2381_10737" result="shape"/>
</filter>
</defs>
</svg>
